<svg xmlns="http://www.w3.org/2000/svg"><symbol viewBox="0 0 32 32" id="shape-earth"><title>earth</title> <path d="M16 0c-8.837 0-16 7.163-16 16s7.163 16 16 16 16-7.163 16-16-7.163-16-16-16zM16 30c-1.967 0-3.84-0.407-5.538-1.139l7.286-8.197c0.163-0.183 0.253-0.419 0.253-0.664v-3c0-0.552-0.448-1-1-1-3.531 0-7.256-3.671-7.293-3.707-0.188-0.188-0.442-0.293-0.707-0.293h-4c-0.552 0-1 0.448-1 1v6c0 0.379 0.214 0.725 0.553 0.894l3.447 1.724v5.871c-3.627-2.53-6-6.732-6-11.489 0-2.147 0.484-4.181 1.348-6h3.652c0.265 0 0.52-0.105 0.707-0.293l4-4c0.188-0.188 0.293-0.442 0.293-0.707v-2.419c1.268-0.377 2.61-0.581 4-0.581 2.2 0 4.281 0.508 6.134 1.412-0.13 0.109-0.256 0.224-0.376 0.345-1.133 1.133-1.757 2.64-1.757 4.243s0.624 3.109 1.757 4.243c1.139 1.139 2.663 1.758 4.239 1.758 0.099 0 0.198-0.002 0.297-0.007 0.432 1.619 1.211 5.833-0.263 11.635-0.014 0.055-0.022 0.109-0.026 0.163-2.541 2.596-6.084 4.208-10.004 4.208z" fill="#444444"/> </symbol><symbol viewBox="0 0 32 32" id="shape-github"><title>github</title> <path d="M16 0.395c-8.836 0-16 7.163-16 16 0 7.069 4.585 13.067 10.942 15.182 0.8 0.148 1.094-0.347 1.094-0.77 0-0.381-0.015-1.642-0.022-2.979-4.452 0.968-5.391-1.888-5.391-1.888-0.728-1.849-1.776-2.341-1.776-2.341-1.452-0.993 0.11-0.973 0.11-0.973 1.606 0.113 2.452 1.649 2.452 1.649 1.427 2.446 3.743 1.739 4.656 1.33 0.143-1.034 0.558-1.74 1.016-2.14-3.554-0.404-7.29-1.777-7.29-7.907 0-1.747 0.625-3.174 1.649-4.295-0.166-0.403-0.714-2.030 0.155-4.234 0 0 1.344-0.43 4.401 1.64 1.276-0.355 2.645-0.532 4.005-0.539 1.359 0.006 2.729 0.184 4.008 0.539 3.054-2.070 4.395-1.64 4.395-1.64 0.871 2.204 0.323 3.831 0.157 4.234 1.026 1.12 1.647 2.548 1.647 4.295 0 6.145-3.743 7.498-7.306 7.895 0.574 0.497 1.085 1.47 1.085 2.963 0 2.141-0.019 3.864-0.019 4.391 0 0.426 0.288 0.925 1.099 0.768 6.354-2.118 10.933-8.113 10.933-15.18 0-8.837-7.164-16-16-16z" fill="#444444"/> </symbol><symbol viewBox="0 0 32 32" id="shape-home"><title>home</title> <path d="M32 18.451l-16-12.42-16 12.42v-5.064l16-12.42 16 12.42zM28 18v12h-8v-8h-8v8h-8v-12l12-9z" fill="#444444"/> </symbol><symbol viewBox="0 0 32 32" id="shape-info"><title>info</title> <path d="M14 9.5c0-0.825 0.675-1.5 1.5-1.5h1c0.825 0 1.5 0.675 1.5 1.5v1c0 0.825-0.675 1.5-1.5 1.5h-1c-0.825 0-1.5-0.675-1.5-1.5v-1z" fill="#444444"/> <path d="M20 24h-8v-2h2v-6h-2v-2h6v8h2z" fill="#444444"/> <path d="M16 0c-8.837 0-16 7.163-16 16s7.163 16 16 16 16-7.163 16-16-7.163-16-16-16zM16 29c-7.18 0-13-5.82-13-13s5.82-13 13-13 13 5.82 13 13-5.82 13-13 13z" fill="#444444"/> </symbol><symbol viewBox="0 0 32 32" id="shape-instagram"><title>instagram</title> <path d="M26.688 0h-21.375c-2.922 0-5.313 2.391-5.313 5.313v21.375c0 2.922 2.391 5.313 5.313 5.313h21.375c2.922 0 5.313-2.391 5.313-5.313v-21.375c0-2.922-2.391-5.313-5.313-5.313zM10.244 14h11.513c0.218 0.627 0.337 1.3 0.337 2 0 3.36-2.734 6.094-6.094 6.094s-6.094-2.734-6.094-6.094c0-0.7 0.119-1.373 0.338-2zM28 14.002v11.998c0 1.1-0.9 2-2 2h-20c-1.1 0-2-0.9-2-2v-12h3.128c-0.145 0.644-0.222 1.313-0.222 2 0 5.014 4.079 9.094 9.094 9.094s9.094-4.079 9.094-9.094c0-0.687-0.077-1.356-0.222-2l3.128 0.002zM28 7c0 0.55-0.45 1-1 1h-2c-0.55 0-1-0.45-1-1v-2c0-0.55 0.45-1 1-1h2c0.55 0 1 0.45 1 1v2z" fill="#444444"/> </symbol><symbol viewBox="0 0 32 32" id="shape-linkedin"><title>linkedin</title> <path d="M26.625 0h-21.25c-2.956 0-5.375 2.419-5.375 5.375v21.25c0 2.956 2.419 5.375 5.375 5.375h21.25c2.956 0 5.375-2.419 5.375-5.375v-21.25c0-2.956-2.419-5.375-5.375-5.375zM12 26h-4v-14h4v14zM10 10c-1.105 0-2-0.895-2-2s0.895-2 2-2 2 0.895 2 2-0.895 2-2 2zM26 26h-4v-8c0-1.105-0.895-2-2-2s-2 0.895-2 2v8h-4v-14h4v2.483c0.825-1.133 2.086-2.483 3.5-2.483 2.485 0 4.5 2.239 4.5 5v9z" fill="#444444"/> </symbol><symbol viewBox="0 0 32 32" id="shape-twitter"><title>twitter</title> <path d="M32 6.076c-1.177 0.522-2.443 0.875-3.771 1.034 1.355-0.813 2.396-2.099 2.887-3.632-1.269 0.752-2.674 1.299-4.169 1.593-1.198-1.276-2.904-2.073-4.792-2.073-3.626 0-6.565 2.939-6.565 6.565 0 0.515 0.058 1.016 0.17 1.496-5.456-0.274-10.294-2.888-13.532-6.86-0.565 0.97-0.889 2.097-0.889 3.301 0 2.278 1.159 4.287 2.921 5.465-1.076-0.034-2.088-0.329-2.974-0.821-0.001 0.027-0.001 0.055-0.001 0.083 0 3.181 2.263 5.834 5.266 6.437-0.551 0.15-1.131 0.23-1.73 0.23-0.423 0-0.834-0.041-1.235-0.118 0.835 2.608 3.26 4.506 6.133 4.559-2.247 1.761-5.078 2.81-8.154 2.81-0.53 0-1.052-0.031-1.566-0.092 2.905 1.863 6.356 2.95 10.064 2.95 12.076 0 18.679-10.004 18.679-18.68 0-0.285-0.006-0.568-0.019-0.849 1.283-0.926 2.396-2.082 3.276-3.398z" fill="#444444"/> </symbol></svg>